<svg width="1024" height="1024" viewBox="0 0 1024 1024" xmlns="http://www.w3.org/2000/svg">
  <defs>
    <linearGradient id="robot-blue" x1="210" y1="120" x2="790" y2="920" gradientUnits="userSpaceOnUse">
      <stop offset="0" stop-color="#A9B8FF"/>
      <stop offset="0.42" stop-color="#6E7DFF"/>
      <stop offset="1" stop-color="#3038F5"/>
    </linearGradient>
    <linearGradient id="robot-blue-dark" x1="330" y1="330" x2="700" y2="710" gradientUnits="userSpaceOnUse">
      <stop offset="0" stop-color="#5E71FF"/>
      <stop offset="1" stop-color="#2833DC"/>
    </linearGradient>
    <radialGradient id="soft-light" cx="0" cy="0" r="1" gradientTransform="translate(355 265) rotate(48) scale(560 500)" gradientUnits="userSpaceOnUse">
      <stop stop-color="white" stop-opacity="0.34"/>
      <stop offset="1" stop-color="white" stop-opacity="0"/>
    </radialGradient>
    <filter id="soft-shadow" x="28" y="28" width="968" height="970" filterUnits="userSpaceOnUse">
      <feDropShadow dx="0" dy="28" stdDeviation="30" flood-color="#2431C7" flood-opacity="0.22"/>
    </filter>
  </defs>

  <g filter="url(#soft-shadow)">
    <!-- Reuses the minimalist robot's antenna, rounded head, face and wheel geometry. -->
    <rect x="497" y="83" width="30" height="112" rx="15" fill="url(#robot-blue)"/>
    <circle cx="512" cy="93" r="40" fill="url(#robot-blue)"/>
    <rect x="432" y="173" width="160" height="43" rx="21.5" fill="url(#robot-blue)"/>

    <rect x="73" y="568" width="205" height="372" rx="102.5" fill="url(#robot-blue)"/>
    <rect x="746" y="568" width="205" height="372" rx="102.5" fill="url(#robot-blue)"/>
    <rect x="242" y="697" width="540" height="74" rx="37" fill="#4D5AF0"/>

    <path d="M512 201C250 201 180 281 180 501C180 721 250 801 512 801C774 801 844 721 844 501C844 281 774 201 512 201Z"
          fill="url(#robot-blue)"/>
    <path d="M512 201C250 201 180 281 180 501C180 721 250 801 512 801C774 801 844 721 844 501C844 281 774 201 512 201Z"
          fill="url(#soft-light)"/>

    <path d="M512 302C360 302 310 342 310 482C310 622 360 662 512 662C664 662 714 622 714 482C714 342 664 302 512 302Z"
          fill="url(#robot-blue-dark)"/>
    <circle cx="420" cy="463" r="45" fill="white"/>
    <circle cx="604" cy="463" r="45" fill="white"/>
    <path d="M482 562Q512 597 542 562" fill="none" stroke="white" stroke-width="15" stroke-linecap="round"/>
  </g>
</svg>
